<?xml version="1.0" encoding="UTF-8"?>
<svg xmlns="http://www.w3.org/2000/svg" version="1.1" viewBox="0 0 283.46 283.46">
  <defs>
    <style>
      .cls-1 {
        stroke-miterlimit: 10;
      }

      .cls-1, .cls-2 {
        fill: none;
        stroke: #fff;
        stroke-width: 4.21px;
      }

      .cls-3 {
        fill: #fff;
      }

      .cls-2 {
        stroke-linecap: round;
        stroke-linejoin: round;
      }
    </style>
  </defs>
  <!-- Generator: Adobe Illustrator 28.7.1, SVG Export Plug-In . SVG Version: 1.2.0 Build 142)  -->
  <g>
    <g id="Camada_1">
      <g>
        <rect class="cls-1" x="70.35" y="79.63" width="142.77" height="135.29" rx="9.21" ry="9.21"/>
        <line class="cls-2" x1="70.34" y1="113.01" x2="213.12" y2="113.01"/>
        <line class="cls-2" x1="105.12" y1="68.54" x2="105.12" y2="90.73"/>
        <line class="cls-2" x1="178.35" y1="68.54" x2="178.35" y2="90.73"/>
        <path class="cls-3" d="M111.17,147.59c0,3.34-2.71,6.05-6.05,6.05s-6.05-2.71-6.05-6.05,2.71-6.05,6.05-6.05,6.05,2.71,6.05,6.05"/>
        <path class="cls-3" d="M147.78,147.59c0,3.34-2.71,6.05-6.05,6.05s-6.05-2.71-6.05-6.05,2.71-6.05,6.05-6.05,6.05,2.71,6.05,6.05"/>
        <path class="cls-3" d="M184.4,147.59c0,3.34-2.71,6.05-6.05,6.05s-6.05-2.71-6.05-6.05,2.71-6.05,6.05-6.05,6.05,2.71,6.05,6.05"/>
        <path class="cls-3" d="M111.17,182.23c0,3.34-2.71,6.05-6.05,6.05s-6.05-2.71-6.05-6.05,2.71-6.05,6.05-6.05,6.05,2.71,6.05,6.05"/>
        <path class="cls-3" d="M147.78,182.23c0,3.34-2.71,6.05-6.05,6.05s-6.05-2.71-6.05-6.05,2.71-6.05,6.05-6.05,6.05,2.71,6.05,6.05"/>
        <path class="cls-3" d="M184.4,182.23c0,3.34-2.71,6.05-6.05,6.05s-6.05-2.71-6.05-6.05,2.71-6.05,6.05-6.05,6.05,2.71,6.05,6.05"/>
      </g>
    </g>
  </g>
</svg>