<?xml version="1.0" encoding="UTF-8"?>
<svg xmlns="http://www.w3.org/2000/svg" version="1.1" viewBox="0 0 283.46 283.46">
  <defs>
    <style>
      .cls-1 {
        fill: none;
        stroke: #fff;
        stroke-miterlimit: 10;
        stroke-width: 3.16px;
      }

      .cls-2 {
        fill: #fff;
      }
    </style>
  </defs>
  <!-- Generator: Adobe Illustrator 28.7.1, SVG Export Plug-In . SVG Version: 1.2.0 Build 142)  -->
  <g>
    <g id="Camada_1">
      <g>
        <path class="cls-1" d="M70.74,141.02c-.1-.04-.18-.12-.29-.12-.45,0-.81.36-.81.82,0,19.26,7.5,37.36,21.12,50.98,13.62,13.62,31.72,21.12,50.98,21.12s37.37-7.5,50.98-21.12c13.62-13.62,21.12-31.72,21.12-50.98s-7.5-37.36-21.12-50.98c-28.11-28.11-73.85-28.11-101.96,0-.32.32-.32.84,0,1.15.08.08.19.08.29.12.29.12.63.12.86-.12,27.47-27.48,72.18-27.48,99.66,0,13.31,13.31,20.64,31,20.64,49.83s-7.33,36.52-20.64,49.83c-13.31,13.31-31.01,20.64-49.83,20.64s-36.52-7.33-49.83-20.64c-13.31-13.31-20.64-31-20.64-49.83,0-.34-.23-.57-.53-.7Z"/>
        <g>
          <path class="cls-2" d="M120.39,162.74c5.7,4.94,11.65,7.66,18.6,8.5v5.26c0,1.99,1.68,3.67,3.68,3.67s3.68-1.68,3.68-3.67v-5.11c10.82-.94,18.23-7.89,18.23-17.3s-5.69-14.31-18.41-17.25v-20.65c3.58.71,6.84,2.3,10.13,4.91.98.84,1.84.95,2.55.95,2.12,0,3.85-1.69,3.85-3.77,0-1.61-.92-2.55-1.83-3.25-4.85-3.59-9.27-5.47-14.54-6.14v-1.94c0-1.99-1.69-3.68-3.68-3.68s-3.68,1.69-3.68,3.68v1.69c-10.46.88-17.9,7.82-17.9,16.97s5.42,14.29,18.07,17.32v21.12c-5.19-.87-9.64-3.15-13.88-7.08-.63-.64-1.61-1.03-2.64-1.03-2,0-3.76,1.76-3.76,3.76,0,1.56.86,2.48,1.51,3.03M122.64,157.58c.77,0,1.28.34,1.53.6,4.77,4.43,9.97,7.07,16.62,7.75v-24.29c-12.79-2.81-18.07-7.5-18.07-16.02s7.5-15.17,17.9-15.43v-3.24c0-1.11.94-2.05,2.04-2.05s2.05.94,2.05,2.05v3.41c6.13.51,10.56,2.56,15.17,5.97.77.6,1.19,1.11,1.19,1.96,0,1.2-1.02,2.13-2.22,2.13-.51,0-.94-.09-1.53-.6-4.17-3.32-8.26-5.03-12.78-5.54v23.86c12.95,2.73,18.41,7.59,18.41,15.94,0,9.03-7.58,15.43-18.23,15.76v6.65c0,1.1-.94,2.04-2.05,2.04s-2.04-.94-2.04-2.04v-6.73c-7.42-.6-13.47-3.32-19.17-8.27-.6-.51-.94-1.02-.94-1.79,0-1.1,1.02-2.13,2.13-2.13"/>
          <path class="cls-2" d="M140.8,114.04c-8.27.17-13.72,5.11-13.72,11.25,0,5.79,2.73,9.37,13.72,12.02v-23.27ZM139.16,135.2c-8.73-2.43-10.46-5.41-10.46-9.91,0-4.99,4.31-8.81,10.46-9.5v19.41Z"/>
          <path class="cls-2" d="M158.6,154.43c0-5.88-2.98-9.46-14.06-11.93v23.52c8.52-.17,14.06-5.11,14.06-11.59M146.18,164.28v-19.71c8.97,2.33,10.8,5.43,10.8,9.86,0,5.27-4.36,9.17-10.8,9.85"/>
        </g>
      </g>
    </g>
  </g>
</svg>