<?xml version="1.0" encoding="UTF-8"?>
<svg xmlns="http://www.w3.org/2000/svg" version="1.1" viewBox="0 0 283.46 283.46">
  <defs>
    <style>
      .cls-1 {
        fill: none;
        stroke: #fff;
        stroke-miterlimit: 10;
        stroke-width: 3.16px;
      }
    </style>
  </defs>
  <!-- Generator: Adobe Illustrator 28.7.1, SVG Export Plug-In . SVG Version: 1.2.0 Build 142)  -->
  <g>
    <g id="Camada_1">
      <g>
        <path class="cls-1" d="M185.12,115.48c0,.49.4.89.89.89s.89-.4.89-.89v-12.41c0-2.94-1.2-5.81-3.29-7.89l-29.68-29.37c-2.34-2.31-5.43-3.58-8.72-3.58h-39.95c-4.8,0-8.7,3.9-8.7,8.7v44.06c0,.49.4.89.89.89s.89-.39.89-.89h0v-44.06c0-3.82,3.11-6.92,6.92-6.92h39.95c2.81,0,5.47,1.09,7.46,3.07l29.68,29.37c1.76,1.74,2.76,4.16,2.76,6.62v12.41h0Z"/>
        <path class="cls-1" d="M146.74,68.15c-.49,0-.89.4-.89.89v21.11c0,6.92,5.63,12.55,12.55,12.55h21.68c.49,0,.89-.4.89-.89s-.4-.89-.89-.89h-21.68c-5.94,0-10.78-4.83-10.78-10.78v-21.11c0-.49-.4-.89-.89-.89Z"/>
        <path class="cls-1" d="M69.63,135.86v75.04c0,5.7,4.64,10.34,10.34,10.34h123.51c5.7,0,10.34-4.64,10.34-10.34v-75.04c0-5.7-4.64-10.34-10.34-10.34h-123.51c-5.7,0-10.34,4.64-10.34,10.34ZM212.05,210.9c0,4.72-3.84,8.57-8.56,8.57h-123.51c-4.72,0-8.56-3.84-8.56-8.57v-75.04c0-4.72,3.84-8.56,8.56-8.56h123.51c4.72,0,8.56,3.84,8.56,8.56v75.04Z"/>
        <path class="cls-1" d="M189.92,193.88h-96.38c-4.66,0-8.46,3.8-8.46,8.46v8.47c0,.49.4.89.89.89s.89-.39.89-.89v-8.47c0-3.68,3-6.68,6.68-6.68h96.38c3.68,0,6.68,3,6.68,6.68v8.47c0,.49.4.89.89.89s.89-.39.89-.89v-8.47c0-4.66-3.8-8.46-8.46-8.46Z"/>
        <path class="cls-1" d="M194.59,142.69h-2.97c-3.88,0-7.04,3.16-7.04,7.04s3.16,7.04,7.04,7.04h2.97c3.89,0,7.04-3.16,7.04-7.04s-3.16-7.04-7.04-7.04ZM186.36,149.73c0-2.9,2.36-5.26,5.26-5.26h2.97c2.9,0,5.26,2.36,5.26,5.26s-2.36,5.27-5.26,5.27h-2.97c-2.9,0-5.26-2.36-5.26-5.27Z"/>
        <path class="cls-1" d="M194.59,160.14h-2.97c-3.88,0-7.04,3.16-7.04,7.04s3.16,7.04,7.04,7.04h2.97c3.89,0,7.04-3.16,7.04-7.04s-3.16-7.04-7.04-7.04ZM186.36,167.19c0-2.9,2.36-5.27,5.26-5.27h2.97c2.9,0,5.26,2.36,5.26,5.27s-2.36,5.27-5.26,5.27h-2.97c-2.9,0-5.26-2.36-5.26-5.27Z"/>
      </g>
    </g>
  </g>
</svg>