<svg width="64" height="58" viewBox="0 0 64 58" fill="none" xmlns="http://www.w3.org/2000/svg">
<path d="M31.7408 19.891C36.635 19.891 40.6026 15.886 40.6026 10.9455C40.6026 6.00504 36.635 2 31.7408 2C26.8465 2 22.8789 6.00504 22.8789 10.9455C22.8789 15.886 26.8465 19.891 31.7408 19.891Z" stroke="white" stroke-width="4" stroke-miterlimit="10" stroke-linecap="round"/>
<path d="M3.87275 24.8027C2.75746 25.4533 2 26.6476 2 28.0324C2 30.105 3.67757 31.7826 5.75014 31.7826H7.94818" stroke="white" stroke-width="4" stroke-miterlimit="10" stroke-linecap="round"/>
<path d="M25.793 25.8398H37.6893" stroke="white" stroke-width="4" stroke-miterlimit="10" stroke-linecap="round"/>
<path d="M46.6119 26.8292C47.1585 26.8292 47.6017 26.3861 47.6017 25.8394C47.6017 25.2928 47.1585 24.8496 46.6119 24.8496C46.0652 24.8496 45.6221 25.2928 45.6221 25.8394C45.6221 26.3861 46.0652 26.8292 46.6119 26.8292Z" fill="white" stroke="white" stroke-width="4" stroke-miterlimit="10" stroke-linecap="round"/>
<path d="M19.8447 49.0137V55.5799" stroke="white" stroke-width="4" stroke-miterlimit="10" stroke-linecap="round"/>
<path d="M43.6377 55.5799V49.0137" stroke="white" stroke-width="4" stroke-miterlimit="10" stroke-linecap="round"/>
<path d="M19.7052 14.5981C12.9113 16.587 7.94824 22.8651 7.94824 30.3003V33.2744C7.94824 42.3082 15.2719 49.6319 24.3057 49.6319H39.1762C46.6625 49.6319 52.9778 44.5992 54.9156 37.7356H58.5728C60.176 37.7356 61.4772 36.4344 61.4772 34.8312V28.7436C61.4772 27.1404 60.176 25.8392 58.5728 25.8392H54.9156C54.0002 22.6002 52.1088 19.7702 49.5855 17.6837V10.9688C47.09 10.9688 44.9524 12.5069 44.0695 14.6864" stroke="white" stroke-width="4" stroke-miterlimit="10" stroke-linecap="round"/>
</svg>
