<?xml version="1.0" encoding="UTF-8"?>
<svg xmlns="http://www.w3.org/2000/svg" version="1.1" viewBox="0 0 283.46 283.46">
  <defs>
    <style>
      .cls-1 {
        fill: none;
        stroke: #fff;
        stroke-miterlimit: 10;
        stroke-width: 4.64px;
      }
    </style>
  </defs>
  <!-- Generator: Adobe Illustrator 28.7.1, SVG Export Plug-In . SVG Version: 1.2.0 Build 142)  -->
  <g>
    <g id="Camada_1">
      <g>
        <path class="cls-1" d="M141.73,136.7c6.59,0,11.93-5.34,11.93-11.93s-5.34-11.93-11.93-11.93-11.93,5.34-11.93,11.93,5.34,11.93,11.93,11.93Z"/>
        <path class="cls-1" d="M168.54,154.35c0,2.74-1.27,5.42-3.51,7.8-4.62,4.9-13.32,8.48-23.3,8.48-14.81,0-26.81-7.88-26.81-16.27s12-15.16,26.81-15.16c7.01,0,13.43,1.52,18.21,4.01,5.28,2.79,8.6,6.75,8.6,11.15Z"/>
        <path class="cls-1" d="M64.87,126.38c-.41.07-.71.43-.71.85v29.01c0,.42.3.78.71.85,4.81.81,9.89,1.58,15.1,2.28,1.36,4.77,3.25,9.34,5.62,13.61-3.42,4.49-6.43,8.56-9.2,12.46-.24.34-.21.81.09,1.1l20.45,20.45c.29.3.76.34,1.1.09,3.9-2.78,7.98-5.79,12.46-9.2,4.26,2.37,8.83,4.26,13.61,5.62.71,5.24,1.48,10.32,2.28,15.1.07.41.43.71.85.71h29.01c.42,0,.78-.3.85-.71.81-4.81,1.58-9.88,2.28-15.1,4.78-1.36,9.35-3.25,13.61-5.62,4.47,3.41,8.55,6.42,12.46,9.2.34.24.81.2,1.1-.09l20.45-20.45c.3-.3.34-.76.09-1.1-2.78-3.91-5.79-7.98-9.21-12.46,2.37-4.26,4.26-8.83,5.62-13.61,5.21-.7,10.29-1.47,15.1-2.28.42-.07.72-.43.72-.85v-29.01c0-.42-.3-.78-.72-.85-4.81-.81-9.88-1.57-15.1-2.28-1.36-4.77-3.25-9.34-5.62-13.61,3.41-4.46,6.42-8.54,9.21-12.46.24-.34.2-.81-.09-1.1l-20.45-20.46c-.29-.3-.76-.33-1.1-.09-3.91,2.78-7.99,5.8-12.46,9.2-4.26-2.37-8.84-4.27-13.61-5.62-.7-5.23-1.47-10.3-2.28-15.1-.07-.41-.43-.71-.85-.71h-29.01c-.42,0-.78.3-.85.71-.81,4.77-1.57,9.85-2.28,15.1-4.77,1.36-9.34,3.25-13.61,5.62-4.48-3.41-8.55-6.43-12.46-9.2-.34-.25-.81-.21-1.1.09l-20.45,20.46c-.3.3-.34.76-.09,1.1,2.77,3.9,5.79,7.98,9.2,12.46-2.37,4.26-4.27,8.84-5.62,13.6-5.21.7-10.29,1.47-15.1,2.28Z"/>
        <path class="cls-1" d="M141.73,186.82c24.86,0,45.08-20.23,45.08-45.08s-20.23-45.09-45.08-45.09-45.09,20.23-45.09,45.09,20.22,45.08,45.09,45.08Z"/>
      </g>
    </g>
  </g>
</svg>