<?xml version="1.0" encoding="UTF-8"?>
<svg xmlns="http://www.w3.org/2000/svg" version="1.1" viewBox="0 0 283.46 283.46">
  <defs>
    <style>
      .cls-1 {
        fill: none;
        stroke: #fff;
        stroke-miterlimit: 10;
        stroke-width: 3.67px;
      }
    </style>
  </defs>
  <!-- Generator: Adobe Illustrator 28.7.1, SVG Export Plug-In . SVG Version: 1.2.0 Build 142)  -->
  <g>
    <g id="Camada_1">
      <g>
        <path class="cls-1" d="M206.68,138.93c-.63,0-1.25.03-1.86.07-1.36-35.93-28.9-63.94-63.09-63.94s-61.73,28-63.09,63.94c-.61-.05-1.23-.07-1.86-.07-18.17,0-32.95,15.58-32.95,34.73s14.78,34.73,32.95,34.73h129.9c18.17,0,32.95-15.58,32.95-34.73s-14.78-34.73-32.95-34.73ZM45.67,173.67c0-18.14,13.96-32.89,31.11-32.89.9,0,1.79.06,2.67.14l.04-.02s.02.02.04.02c7.84,0,14.22,6.37,14.22,14.21,0,.51.41.92.92.92s.92-.41.92-.92c0-8.52-6.69-15.44-15.07-15.95,1.28-34.98,28-62.26,61.22-62.26s60.01,27.36,61.22,62.4c-7.73,1.14-13.71,7.77-13.71,15.81,0,.51.41.92.92.92s.92-.41.92-.92c0-7.83,6.38-14.21,14.22-14.21.08,0,.13-.06.2-.08.39-.02.78-.06,1.17-.06,17.15,0,31.11,14.75,31.11,32.89s-13.96,32.89-31.11,32.89H76.78c-17.15,0-31.11-14.75-31.11-32.89Z"/>
        <path class="cls-1" d="M169.87,118.44h-56.27c-1.83,0-3.53.83-4.65,2.28-1.12,1.45-1.5,3.3-1.04,5.07l8.84,34.08c1.03,3.95,4.59,6.71,8.68,6.71h32.61c4.08,0,7.65-2.76,8.68-6.71l8.84-34.08c.46-1.77.08-3.63-1.04-5.07-1.12-1.44-2.82-2.28-4.65-2.28ZM173.77,125.33l-8.84,34.08c-.82,3.14-3.65,5.33-6.9,5.33h-32.61c-3.24,0-6.08-2.2-6.89-5.33l-8.84-34.08c-.32-1.22-.05-2.49.72-3.48.77-1,1.93-1.57,3.19-1.57h56.27c1.26,0,2.42.57,3.19,1.56.77.99,1.03,2.26.72,3.48Z"/>
        <path class="cls-1" d="M128.84,175.22c-4.28,0-7.76,3.48-7.76,7.75s3.48,7.76,7.76,7.76,7.76-3.48,7.76-7.76-3.48-7.75-7.76-7.75ZM128.84,188.89c-3.26,0-5.92-2.65-5.92-5.92s2.65-5.91,5.92-5.91,5.92,2.65,5.92,5.91-2.65,5.92-5.92,5.92Z"/>
        <path class="cls-1" d="M154.62,175.22c-4.28,0-7.76,3.48-7.76,7.75s3.48,7.76,7.76,7.76,7.76-3.48,7.76-7.76-3.48-7.75-7.76-7.75ZM154.62,188.89c-3.26,0-5.92-2.65-5.92-5.92s2.65-5.91,5.92-5.91,5.92,2.65,5.92,5.91-2.66,5.92-5.92,5.92Z"/>
      </g>
    </g>
  </g>
</svg>