<?xml version="1.0" encoding="UTF-8"?>
<svg xmlns="http://www.w3.org/2000/svg" version="1.1" viewBox="0 0 283.46 283.46">
  <defs>
    <style>
      .cls-1 {
        fill: none;
        stroke: #fff;
        stroke-miterlimit: 10;
        stroke-width: 4.34px;
      }
    </style>
  </defs>
  <!-- Generator: Adobe Illustrator 28.7.1, SVG Export Plug-In . SVG Version: 1.2.0 Build 142)  -->
  <g>
    <g id="Camada_1">
      <g>
        <path class="cls-1" d="M183.21,68.33v6.19c0,1.55-.17,3.05-.55,4.49-2.01,8.67-9.76,15.09-19.01,15.09h-43.85c-9.24,0-16.99-6.42-19.01-15.09-.37-1.44-.55-2.94-.55-4.49v-6.19c0-1.79,1.44-3.25,3.25-3.25h76.45c1.82,0,3.25,1.47,3.25,3.25Z"/>
        <path class="cls-1" d="M215.26,88.49v120.39c0,5.24-4.23,9.5-9.47,9.5H77.68c-5.24,0-9.47-4.26-9.47-9.5v-120.39c0-5.21,4.23-9.47,9.47-9.47h23.12c2.02,8.67,9.76,15.09,19.01,15.09h43.86c9.24,0,16.99-6.42,19.01-15.09h23.12c5.24,0,9.47,4.26,9.47,9.47Z"/>
        <line class="cls-1" x1="99.87" y1="111.23" x2="183.6" y2="111.23"/>
        <line class="cls-1" x1="99.87" y1="128.35" x2="183.6" y2="128.35"/>
        <line class="cls-1" x1="99.87" y1="145.47" x2="183.6" y2="145.47"/>
        <line class="cls-1" x1="99.87" y1="162.59" x2="183.6" y2="162.59"/>
        <line class="cls-1" x1="99.87" y1="179.71" x2="183.6" y2="179.71"/>
        <line class="cls-1" x1="99.87" y1="196.83" x2="183.6" y2="196.83"/>
      </g>
    </g>
  </g>
</svg>