<?xml version="1.0" encoding="UTF-8"?>
<svg xmlns="http://www.w3.org/2000/svg" version="1.1" viewBox="0 0 283.46 283.46">
  <defs>
    <style>
      .cls-1 {
        fill: none;
        stroke: #fff;
        stroke-miterlimit: 10;
        stroke-width: 3.9px;
      }

      .cls-2 {
        fill: #fff;
      }
    </style>
  </defs>
  <!-- Generator: Adobe Illustrator 28.7.1, SVG Export Plug-In . SVG Version: 1.2.0 Build 142)  -->
  <g>
    <g id="Camada_1">
      <g>
        <path class="cls-2" d="M205.38,70H71.2c-4.78,0-8.68,3.9-8.68,8.73v109.35c0,8.73,7.12,15.84,15.84,15.84h84.68c-1.45-1.19-2.86-2.49-4.1-3.9h-3.32v-4.36c-1.71-2.6-3.07-5.51-3.95-8.57v12.05h-26.75v-124.68h26.75v92.63c.88-3.07,2.23-5.97,3.95-8.57v-52.42h54.55v48c1.51,1.66,2.86,3.43,3.95,5.4v-80.78c0-4.83-3.95-8.73-8.73-8.73ZM121.02,200.03h-42.65c-6.55,0-11.95-5.4-11.95-11.95v-81.98h54.6v93.92ZM121.02,102.16h-54.6v-23.43c0-2.65,2.13-4.78,4.78-4.78h49.82v28.21ZM210.16,102.16h-54.55v-28.21h49.77c2.65,0,4.78,2.13,4.78,4.78v23.43Z"/>
        <path class="cls-1" d="M218.99,177.07c0,19.01-15.38,34.44-34.39,34.44-8.16,0-15.64-2.81-21.56-7.58-1.45-1.19-2.86-2.49-4.1-3.9-1.25-1.35-2.34-2.81-3.32-4.36-1.71-2.6-3.07-5.51-3.95-8.57-.99-3.17-1.51-6.55-1.51-10.03s.52-6.81,1.51-9.97c.88-3.07,2.23-5.97,3.95-8.57,6.13-9.51,16.83-15.84,28.99-15.84,10.18,0,19.27,4.42,25.56,11.43,1.51,1.66,2.86,3.43,3.95,5.4,3.12,5.14,4.88,11.17,4.88,17.56Z"/>
        <polyline class="cls-1" points="167 177 178.34 191.19 202.15 168.49"/>
      </g>
    </g>
  </g>
</svg>