<svg width="84" height="84" viewBox="0 0 84 84" fill="none" xmlns="http://www.w3.org/2000/svg">
<path d="M46.5226 37.1984C46.5226 37.1984 46.696 37.649 46.5226 37.8223C46.3493 37.9957 46.0719 37.9957 45.8986 37.8223C45.7252 37.649 45.7252 37.3717 45.8986 37.1984C46.0719 37.025 46.3493 37.025 46.5226 37.1984Z" stroke="white" stroke-width="4.80925" stroke-linecap="round" stroke-linejoin="round"/>
<path d="M41.4604 27.5273H51.3058C53.9058 27.5273 56.0205 29.642 56.0205 32.242V42.0874C56.0205 43.3354 55.5352 44.5486 54.6339 45.4153L42.1538 57.8954C40.3165 59.7328 37.3351 59.7328 35.4978 57.8954L25.6524 48.05C23.8151 46.2127 23.8151 43.2314 25.6524 41.394L38.1325 28.9139C38.9991 28.0472 40.2124 27.5273 41.4604 27.5273Z" stroke="white" stroke-width="4.80925" stroke-linecap="round" stroke-linejoin="round"/>
<path d="M41.5995 73.1482C58.8308 73.1482 72.7996 59.1794 72.7996 41.9481C72.7996 24.7168 58.8308 10.748 41.5995 10.748C24.3682 10.748 10.3994 24.7168 10.3994 41.9481C10.3994 59.1794 24.3682 73.1482 41.5995 73.1482Z" stroke="white" stroke-width="4.80925" stroke-linecap="round" stroke-linejoin="round"/>
</svg>
