<svg width="94" height="95" viewBox="0 0 94 95" fill="none" xmlns="http://www.w3.org/2000/svg">
<path d="M29.3743 43.4303C33.7006 43.4303 37.2077 39.9232 37.2077 35.597C37.2077 31.2708 33.7006 27.7637 29.3743 27.7637C25.0481 27.7637 21.541 31.2708 21.541 35.597C21.541 39.9232 25.0481 43.4303 29.3743 43.4303Z" stroke="white" stroke-width="4" stroke-linecap="round" stroke-linejoin="round"/>
<path d="M62.6667 43.431C68.0745 43.431 72.4583 39.0471 72.4583 33.6393C72.4583 28.2315 68.0745 23.8477 62.6667 23.8477C57.2589 23.8477 52.875 28.2315 52.875 33.6393C52.875 39.0471 57.2589 43.431 62.6667 43.431Z" stroke="white" stroke-width="4" stroke-linecap="round" stroke-linejoin="round"/>
<path d="M80.291 70.8483V66.9316C80.291 60.43 75.0427 55.1816 68.541 55.1816H56.791C50.2893 55.1816 45.041 60.43 45.041 66.9316V70.8483" stroke="white" stroke-width="4" stroke-linecap="round" stroke-linejoin="round"/>
<path d="M33.2913 55.1816H25.458C18.9563 55.1816 13.708 60.43 13.708 66.9316V70.8483" stroke="white" stroke-width="4" stroke-linecap="round" stroke-linejoin="round"/>
</svg>
