<svg width="465" height="113" viewBox="0 0 465 113" fill="none" xmlns="http://www.w3.org/2000/svg">
<mask id="mask0_197_1829" style="mask-type:luminance" maskUnits="userSpaceOnUse" x="0" y="0" width="96" height="96">
<path d="M95.4019 0H0V95.4519H95.4019V0Z" fill="white"/>
</mask>
<g mask="url(#mask0_197_1829)">
<path fill-rule="evenodd" clip-rule="evenodd" d="M39.5618 91.6085C36.0922 88.1388 36.0922 82.4477 39.5618 78.9781L48.1236 70.4164L66.6448 51.8951L78.8509 39.689C82.3205 36.2194 88.0117 36.2194 91.4813 39.689C94.9509 43.1587 94.9509 48.8498 91.4813 52.3194L79.2752 64.5255L60.754 83.0467L52.1922 91.6085C48.7226 95.0781 43.0315 95.0781 39.5618 91.6085ZM3.56772 91.5086C0.098102 88.039 0.098102 82.3478 3.56772 78.8782L78.751 3.69491C82.2206 0.225293 87.9118 0.225293 91.3814 3.69491C94.851 7.16452 94.851 12.8557 91.3814 16.3253L16.1981 91.5086C12.7285 94.9782 7.03733 94.9782 3.56772 91.5086ZM29.3777 16.8495L28.3293 15.8011L27.1311 14.603L16.1232 3.59506C12.6536 0.125446 6.96245 0.125446 3.49284 3.59506C0.0232213 7.06468 0.0232213 12.7558 3.49284 16.2255L14.5008 27.2334L15.6989 28.4315L16.7473 29.4799L23.0625 35.7951C26.5321 39.2647 32.2232 39.2647 35.6929 35.7951L42.0081 29.4799L43.1313 28.3566L55.3374 16.1506C58.807 12.681 58.807 6.9898 55.3374 3.52018C51.8677 0.0505651 46.1766 0.0505651 42.707 3.52018L30.5009 15.7262L29.3777 16.8495ZM78.2518 76.432L79.3251 75.3587L79.425 75.2588C82.8946 71.8891 88.5109 71.939 91.9555 75.3587C95.4002 78.8033 95.4251 84.3947 92.0554 87.8892L91.9555 87.9891L90.8822 89.0624L87.9368 92.0078C84.4672 95.4775 78.776 95.4775 75.3064 92.0078C71.8368 88.5382 71.8368 82.8471 75.3064 79.3775L78.2518 76.432Z" fill="white"/>
</g>
<path d="M143.227 73.6609L123.059 18.2969H134.441L149.792 62.7529L165.218 18.2969H176.526L156.357 73.6609H143.227Z" fill="white"/>
<path d="M194.871 73.6609V18.2969H231.339V26.9085H205.555V41.386H228.968V49.6981H205.555V65.0493H231.339V73.6609H194.871Z" fill="white"/>
<path d="M271.927 74.6092C267.908 74.6092 264.339 73.9353 261.218 72.5624C258.073 71.1895 255.602 69.1926 253.83 66.5467C252.033 63.9008 251.084 60.7308 250.984 56.9866H262.292C262.342 58.6091 262.766 60.1067 263.565 61.4047C264.364 62.7277 265.462 63.776 266.86 64.5249C268.258 65.2737 269.93 65.6731 271.877 65.6731C273.574 65.6731 275.022 65.3985 276.27 64.8494C277.518 64.3002 278.492 63.5264 279.191 62.528C279.89 61.5295 280.264 60.3314 280.264 58.9585C280.264 57.386 279.865 56.063 279.066 55.0146C278.267 53.9663 277.219 53.0676 275.871 52.3188C274.523 51.57 272.975 50.921 271.203 50.297C269.431 49.6979 267.609 49.0738 265.712 48.4498C261.293 46.9771 257.924 45.0551 255.677 42.6838C253.406 40.3124 252.282 37.1673 252.282 33.2734C252.282 29.9535 253.081 27.1079 254.654 24.7366C256.226 22.3653 258.448 20.5431 261.293 19.2701C264.139 17.9971 267.384 17.373 271.028 17.373C274.772 17.373 278.042 18.022 280.863 19.32C283.684 20.618 285.93 22.4651 287.578 24.8864C289.25 27.3076 290.124 30.1532 290.223 33.4231H278.766C278.716 32.2 278.367 31.0518 277.693 29.9785C277.044 28.9051 276.12 28.0315 274.972 27.3576C273.824 26.7086 272.451 26.3591 270.854 26.3591C269.481 26.3092 268.233 26.5089 267.084 26.9831C265.961 27.4574 265.063 28.1563 264.438 29.0799C263.814 30.0035 263.49 31.1517 263.49 32.5245C263.49 33.8475 263.814 34.9458 264.438 35.8444C265.063 36.743 265.961 37.5168 267.134 38.1658C268.283 38.8148 269.655 39.4388 271.253 39.988C272.825 40.5371 274.548 41.1112 276.395 41.6853C279.191 42.6338 281.737 43.7571 284.033 45.0551C286.329 46.3531 288.152 48.0255 289.525 50.0723C290.897 52.1191 291.571 54.8399 291.571 58.2097C291.571 61.1052 290.823 63.801 289.325 66.2722C287.827 68.7433 285.631 70.7652 282.71 72.2878C279.765 73.8354 276.195 74.6092 271.927 74.6092Z" fill="white"/>
<path d="M331.411 74.6092C327.392 74.6092 323.823 73.9353 320.703 72.5624C317.558 71.1895 315.087 69.1926 313.314 66.5467C311.517 63.9008 310.569 60.7308 310.469 56.9866H321.776C321.826 58.6091 322.25 60.1067 323.049 61.4047C323.848 62.7277 324.946 63.776 326.344 64.5249C327.742 65.2737 329.414 65.6731 331.361 65.6731C333.059 65.6731 334.506 65.3985 335.754 64.8494C337.003 64.3002 337.976 63.5264 338.675 62.528C339.374 61.5295 339.748 60.3314 339.748 58.9585C339.748 57.386 339.349 56.063 338.55 55.0146C337.751 53.9663 336.703 53.0676 335.355 52.3188C334.007 51.57 332.46 50.921 330.687 50.297C328.915 49.6979 327.093 49.0738 325.196 48.4498C320.778 46.9771 317.408 45.0551 315.161 42.6838C312.89 40.3124 311.767 37.1673 311.767 33.2734C311.767 29.9535 312.565 27.1079 314.138 24.7366C315.711 22.3653 317.932 20.5431 320.778 19.2701C323.623 17.9971 326.868 17.373 330.513 17.373C334.257 17.373 337.527 18.022 340.347 19.32C343.168 20.618 345.414 22.4651 347.062 24.8864C348.734 27.3076 349.608 30.1532 349.708 33.4231H338.251C338.201 32.2 337.851 31.0518 337.177 29.9785C336.528 28.9051 335.605 28.0315 334.457 27.3576C333.308 26.7086 331.935 26.3591 330.338 26.3591C328.965 26.3092 327.717 26.5089 326.569 26.9831C325.445 27.4574 324.547 28.1563 323.923 29.0799C323.299 30.0035 322.974 31.1517 322.974 32.5245C322.974 33.8475 323.299 34.9458 323.923 35.8444C324.547 36.743 325.446 37.5168 326.619 38.1658C327.767 38.8148 329.14 39.4388 330.737 39.988C332.31 40.5371 334.032 41.1112 335.879 41.6853C338.675 42.6338 341.221 43.7571 343.517 45.0551C345.814 46.3531 347.636 48.0255 349.009 50.0723C350.382 52.1191 351.056 54.8399 351.056 58.2097C351.056 61.1052 350.307 63.801 348.809 66.2722C347.312 68.7433 345.115 70.7652 342.194 72.2878C339.249 73.8354 335.68 74.6092 331.411 74.6092Z" fill="white"/>
<path d="M371.824 73.6609V18.2969H408.293V26.9085H382.508V41.386H405.921V49.6981H382.508V65.0493H408.293V73.6609H371.824Z" fill="white"/>
<path d="M429.809 73.6609V18.2969H440.492V65.3488H464.779V73.6609H429.809Z" fill="white"/>
<path d="M218.211 112.75C216.813 112.75 215.59 112.5 214.491 112.026C213.393 111.552 212.544 110.853 211.92 109.954C211.296 109.031 210.972 107.933 210.922 106.635H214.841C214.866 107.209 215.016 107.708 215.29 108.182C215.565 108.656 215.939 109.006 216.438 109.255C216.913 109.53 217.512 109.655 218.186 109.655C218.76 109.655 219.284 109.555 219.708 109.355C220.133 109.156 220.482 108.881 220.732 108.532C220.981 108.182 221.106 107.783 221.106 107.308C221.106 106.759 220.956 106.31 220.682 105.936C220.407 105.561 220.033 105.262 219.558 105.012C219.084 104.762 218.56 104.513 217.936 104.313C217.312 104.113 216.688 103.889 216.039 103.664C214.491 103.14 213.343 102.491 212.544 101.667C211.746 100.844 211.371 99.7452 211.371 98.3973C211.371 97.2491 211.646 96.2506 212.195 95.4269C212.744 94.6032 213.518 93.9792 214.491 93.5299C215.49 93.0806 216.613 92.8809 217.861 92.8809C219.159 92.8809 220.307 93.1055 221.281 93.5548C222.254 94.0041 223.028 94.6531 223.602 95.4768C224.176 96.3255 224.476 97.299 224.526 98.4472H220.557C220.532 98.0229 220.407 97.6235 220.183 97.2491C219.958 96.8747 219.633 96.5751 219.234 96.3505C218.835 96.1258 218.36 96.001 217.811 96.001C217.337 95.9761 216.888 96.0509 216.513 96.2257C216.114 96.4004 215.814 96.625 215.59 96.9495C215.365 97.274 215.265 97.6734 215.265 98.1477C215.265 98.597 215.365 98.9964 215.59 99.2959C215.814 99.5954 216.114 99.87 216.513 100.095C216.913 100.319 217.387 100.544 217.936 100.719C218.485 100.918 219.084 101.118 219.708 101.318C220.682 101.642 221.555 102.042 222.354 102.491C223.153 102.94 223.777 103.514 224.251 104.238C224.725 104.962 224.975 105.886 224.975 107.059C224.975 108.057 224.725 109.006 224.201 109.855C223.677 110.703 222.903 111.402 221.905 111.951C220.956 112.5 219.708 112.75 218.211 112.75Z" fill="white"/>
<path d="M241.078 112.75C239.23 112.75 237.608 112.326 236.185 111.477C234.762 110.628 233.664 109.48 232.84 107.982C232.017 106.485 231.617 104.762 231.617 102.815C231.617 100.868 232.017 99.1461 232.84 97.6485C233.664 96.1508 234.762 95.0026 236.185 94.1539C237.608 93.3052 239.23 92.8809 241.078 92.8809C242.95 92.8809 244.622 93.3052 246.07 94.1539C247.518 95.0026 248.616 96.1508 249.415 97.6485C250.213 99.1461 250.613 100.868 250.613 102.815C250.613 104.787 250.213 106.51 249.415 107.982C248.616 109.48 247.493 110.628 246.07 111.477C244.622 112.326 242.975 112.75 241.078 112.75ZM241.078 109.43C242.276 109.43 243.299 109.156 244.148 108.631C244.996 108.082 245.645 107.333 246.12 106.335C246.594 105.337 246.819 104.163 246.819 102.815C246.819 101.443 246.594 100.269 246.12 99.2959C245.645 98.3224 244.996 97.5736 244.148 97.0244C243.299 96.4753 242.276 96.2257 241.078 96.2257C239.929 96.2257 238.956 96.5003 238.107 97.0244C237.258 97.5486 236.584 98.2975 236.11 99.2959C235.636 100.269 235.386 101.443 235.386 102.815C235.386 104.163 235.636 105.337 236.11 106.335C236.584 107.333 237.258 108.082 238.107 108.631C238.956 109.156 239.954 109.43 241.078 109.43Z" fill="white"/>
<path d="M258.199 112.425V93.2051H261.893V109.53H270.33V112.4H258.199V112.425Z" fill="white"/>
<path d="M285.008 112.75C283.61 112.75 282.312 112.475 281.164 111.901C280.015 111.327 279.092 110.478 278.418 109.355C277.744 108.232 277.395 106.784 277.395 105.012V93.2051H281.089V105.037C281.089 105.985 281.239 106.784 281.563 107.433C281.888 108.082 282.337 108.556 282.936 108.881C283.535 109.18 284.234 109.355 285.058 109.355C285.906 109.355 286.605 109.205 287.204 108.881C287.803 108.581 288.253 108.082 288.552 107.433C288.852 106.784 289.026 105.985 289.026 105.037V93.2051H292.721V105.012C292.721 106.759 292.371 108.207 291.672 109.355C290.973 110.478 290.05 111.352 288.852 111.901C287.753 112.475 286.43 112.75 285.008 112.75Z" fill="white"/>
<path d="M305.001 112.425V96.2004H299.41V93.2051H314.312V96.2004H308.721V112.425H305.001Z" fill="white"/>
<path d="M321 112.425V93.2051H324.694V112.425H321Z" fill="white"/>
<path d="M341.32 112.75C339.473 112.75 337.85 112.326 336.427 111.477C335.004 110.628 333.881 109.48 333.082 107.982C332.284 106.485 331.859 104.762 331.859 102.815C331.859 100.868 332.259 99.1461 333.082 97.6485C333.906 96.1508 335.004 95.0026 336.427 94.1539C337.85 93.3052 339.473 92.8809 341.32 92.8809C343.192 92.8809 344.864 93.3052 346.312 94.1539C347.76 95.0026 348.858 96.1508 349.657 97.6485C350.456 99.1461 350.855 100.868 350.855 102.815C350.855 104.787 350.456 106.51 349.657 107.982C348.858 109.48 347.735 110.628 346.312 111.477C344.864 112.326 343.217 112.75 341.32 112.75ZM341.32 109.43C342.518 109.43 343.541 109.156 344.39 108.631C345.239 108.082 345.888 107.333 346.362 106.335C346.836 105.337 347.061 104.163 347.061 102.815C347.061 101.443 346.836 100.269 346.362 99.2959C345.888 98.3224 345.239 97.5736 344.39 97.0244C343.541 96.4753 342.518 96.2257 341.32 96.2257C340.196 96.2257 339.198 96.5003 338.349 97.0244C337.501 97.5486 336.827 98.2975 336.352 99.2959C335.878 100.269 335.629 101.443 335.629 102.815C335.629 104.163 335.853 105.337 336.352 106.335C336.827 107.333 337.501 108.082 338.349 108.631C339.198 109.156 340.196 109.43 341.32 109.43Z" fill="white"/>
<path d="M358.445 112.425V93.2051H362.14L370.976 106.46V93.2051H374.67V112.425H370.976L362.14 99.1958V112.425H358.445Z" fill="white"/>
</svg>
