<svg width="465" height="113" viewBox="0 0 465 113" fill="none" xmlns="http://www.w3.org/2000/svg">
<mask id="mask0_493_86" style="mask-type:luminance" maskUnits="userSpaceOnUse" x="0" y="0" width="96" height="96">
<path d="M95.4019 0H0V95.4519H95.4019V0Z" fill="white"/>
</mask>
<g mask="url(#mask0_493_86)">
<path fill-rule="evenodd" clip-rule="evenodd" d="M39.5638 91.6085C36.0942 88.1388 36.0942 82.4477 39.5638 78.9781L48.1255 70.4164L66.6468 51.8951L78.8528 39.689C82.3224 36.2194 88.0136 36.2194 91.4832 39.689C94.9528 43.1587 94.9528 48.8498 91.4832 52.3194L79.2772 64.5255L60.7559 83.0467L52.1942 91.6085C48.7246 95.0781 43.0334 95.0781 39.5638 91.6085ZM3.56967 91.5086C0.100055 88.039 0.100055 82.3478 3.56967 78.8782L78.753 3.69491C82.2226 0.225293 87.9138 0.225293 91.3834 3.69491C94.853 7.16452 94.853 12.8557 91.3834 16.3253L16.2001 91.5086C12.7305 94.9782 7.03929 94.9782 3.56967 91.5086ZM29.3796 16.8495L28.3312 15.8011L27.1331 14.603L16.1252 3.59506C12.6556 0.125446 6.9644 0.125446 3.49479 3.59506C0.0251744 7.06468 0.0251744 12.7558 3.49479 16.2255L14.5027 27.2334L15.7008 28.4315L16.7492 29.4799L23.0644 35.7951C26.534 39.2647 32.2252 39.2647 35.6948 35.7951L42.01 29.4799L43.1333 28.3566L55.3393 16.1506C58.8089 12.681 58.8089 6.9898 55.3393 3.52018C51.8697 0.0505651 46.1785 0.0505651 42.7089 3.52018L30.5029 15.7262L29.3796 16.8495ZM78.2538 76.432L79.3271 75.3587L79.4269 75.2588C82.8965 71.8891 88.5128 71.939 91.9575 75.3587C95.4021 78.8033 95.4271 84.3947 92.0573 87.8892L91.9575 87.9891L90.8842 89.0624L87.9387 92.0078C84.4691 95.4775 78.7779 95.4775 75.3083 92.0078C71.8387 88.5382 71.8387 82.8471 75.3083 79.3775L78.2538 76.432Z" fill="white"/>
</g>
<path d="M143.227 73.6609L123.059 18.2969H134.441L149.792 62.7529L165.218 18.2969H176.526L156.357 73.6609H143.227Z" fill="white"/>
<path d="M194.873 73.6609V18.2969H231.341V26.9085H205.556V41.386H228.97V49.6981H205.556V65.0493H231.341V73.6609H194.873Z" fill="white"/>
<path d="M271.928 74.6112C267.909 74.6112 264.34 73.9372 261.219 72.5643C258.074 71.1915 255.603 69.1946 253.831 66.5487C252.034 63.9028 251.085 60.7327 250.985 56.9885H262.293C262.343 58.611 262.767 60.1087 263.566 61.4067C264.365 62.7296 265.463 63.778 266.861 64.5268C268.259 65.2757 269.931 65.675 271.878 65.675C273.575 65.675 275.023 65.4005 276.271 64.8513C277.519 64.3022 278.493 63.5284 279.192 62.5299C279.89 61.5315 280.265 60.3333 280.265 58.9605C280.265 57.3879 279.866 56.065 279.067 55.0166C278.268 53.9682 277.22 53.0696 275.872 52.3208C274.524 51.5719 272.976 50.9229 271.204 50.2989C269.432 49.6998 267.61 49.0758 265.712 48.4518C261.294 46.9791 257.925 45.057 255.678 42.6857C253.407 40.3144 252.283 37.1693 252.283 33.2753C252.283 29.9555 253.082 27.1099 254.655 24.7386C256.227 22.3673 258.449 20.5451 261.294 19.2721C264.14 17.999 267.385 17.375 271.029 17.375C274.773 17.375 278.043 18.024 280.864 19.322C283.685 20.62 285.931 22.4671 287.579 24.8883C289.251 27.3096 290.125 30.1552 290.224 33.4251H278.767C278.717 32.202 278.368 31.0538 277.694 29.9804C277.045 28.9071 276.121 28.0335 274.973 27.3595C273.825 26.7105 272.452 26.3611 270.854 26.3611C269.482 26.3111 268.234 26.5108 267.085 26.9851C265.962 27.4594 265.064 28.1583 264.439 29.0818C263.815 30.0054 263.491 31.1536 263.491 32.5265C263.491 33.8494 263.815 34.9477 264.439 35.8463C265.064 36.7449 265.962 37.5187 267.135 38.1677C268.284 38.8167 269.656 39.4408 271.254 39.9899C272.826 40.5391 274.549 41.1132 276.396 41.6873C279.192 42.6358 281.738 43.7591 284.034 45.057C286.33 46.355 288.153 48.0274 289.526 50.0743C290.898 52.1211 291.572 54.8419 291.572 58.2116C291.572 61.1071 290.824 63.803 289.326 66.2741C287.828 68.7453 285.632 70.7671 282.711 72.2898C279.766 73.8374 276.196 74.6112 271.928 74.6112Z" fill="white"/>
<path d="M331.41 74.6112C327.392 74.6112 323.822 73.9372 320.702 72.5643C317.557 71.1915 315.086 69.1946 313.313 66.5487C311.516 63.9028 310.568 60.7327 310.468 56.9885H321.775C321.825 58.611 322.249 60.1087 323.048 61.4067C323.847 62.7296 324.945 63.778 326.343 64.5268C327.741 65.2757 329.413 65.675 331.36 65.675C333.058 65.675 334.505 65.4005 335.754 64.8513C337.002 64.3022 337.975 63.5284 338.674 62.5299C339.373 61.5315 339.747 60.3333 339.747 58.9605C339.747 57.3879 339.348 56.065 338.549 55.0166C337.75 53.9682 336.702 53.0696 335.354 52.3208C334.006 51.5719 332.459 50.9229 330.686 50.2989C328.914 49.6998 327.092 49.0758 325.195 48.4518C320.777 46.9791 317.407 45.057 315.16 42.6857C312.889 40.3144 311.766 37.1693 311.766 33.2753C311.766 29.9555 312.565 27.1099 314.137 24.7386C315.71 22.3673 317.931 20.5451 320.777 19.2721C323.622 17.999 326.867 17.375 330.512 17.375C334.256 17.375 337.526 18.024 340.346 19.322C343.167 20.62 345.414 22.4671 347.061 24.8883C348.733 27.3096 349.607 30.1552 349.707 33.4251H338.25C338.2 32.202 337.85 31.0538 337.176 29.9804C336.527 28.9071 335.604 28.0335 334.456 27.3595C333.307 26.7105 331.934 26.3611 330.337 26.3611C328.964 26.3111 327.716 26.5108 326.568 26.9851C325.445 27.4594 324.546 28.1583 323.922 29.0818C323.298 30.0054 322.973 31.1536 322.973 32.5265C322.973 33.8494 323.298 34.9477 323.922 35.8463C324.546 36.7449 325.445 37.5187 326.618 38.1677C327.766 38.8167 329.139 39.4408 330.736 39.9899C332.309 40.5391 334.031 41.1132 335.878 41.6873C338.674 42.6358 341.22 43.7591 343.516 45.057C345.813 46.355 347.635 48.0274 349.008 50.0743C350.381 52.1211 351.055 54.8419 351.055 58.2116C351.055 61.1071 350.306 63.803 348.808 66.2741C347.311 68.7453 345.114 70.7671 342.194 72.2898C339.248 73.8374 335.679 74.6112 331.41 74.6112Z" fill="white"/>
<path d="M371.823 73.6609V18.2969H408.292V26.9085H382.507V41.386H405.92V49.6981H382.507V65.0493H408.292V73.6609H371.823Z" fill="white"/>
<path d="M429.808 73.6609V18.2969H440.491V65.3488H464.778V73.6609H429.808Z" fill="white"/>
<path d="M218.212 112.752C216.814 112.752 215.591 112.502 214.492 112.028C213.394 111.554 212.545 110.855 211.921 109.956C211.297 109.033 210.973 107.934 210.923 106.636H214.842C214.867 107.211 215.016 107.71 215.291 108.184C215.566 108.658 215.94 109.008 216.439 109.257C216.914 109.532 217.513 109.657 218.187 109.657C218.761 109.657 219.285 109.557 219.709 109.357C220.134 109.158 220.483 108.883 220.733 108.534C220.982 108.184 221.107 107.785 221.107 107.31C221.107 106.761 220.957 106.312 220.683 105.938C220.408 105.563 220.034 105.264 219.559 105.014C219.085 104.764 218.561 104.515 217.937 104.315C217.313 104.115 216.689 103.891 216.04 103.666C214.492 103.142 213.344 102.493 212.545 101.669C211.747 100.845 211.372 99.7472 211.372 98.3992C211.372 97.251 211.647 96.2526 212.196 95.4289C212.745 94.6052 213.519 93.9811 214.492 93.5318C215.491 93.0825 216.614 92.8828 217.862 92.8828C219.16 92.8828 220.308 93.1075 221.282 93.5568C222.255 94.0061 223.029 94.6551 223.603 95.4788C224.177 96.3275 224.477 97.301 224.527 98.4492H220.558C220.533 98.0248 220.408 97.6255 220.183 97.251C219.959 96.8766 219.634 96.5771 219.235 96.3524C218.836 96.1278 218.361 96.003 217.812 96.003C217.338 95.978 216.889 96.0529 216.514 96.2276C216.115 96.4024 215.815 96.627 215.591 96.9515C215.366 97.276 215.266 97.6754 215.266 98.1496C215.266 98.5989 215.366 98.9983 215.591 99.2979C215.815 99.5974 216.115 99.872 216.514 100.097C216.914 100.321 217.388 100.546 217.937 100.721C218.486 100.92 219.085 101.12 219.709 101.32C220.683 101.644 221.556 102.044 222.355 102.493C223.154 102.942 223.778 103.516 224.252 104.24C224.726 104.964 224.976 105.888 224.976 107.061C224.976 108.059 224.726 109.008 224.202 109.856C223.678 110.705 222.904 111.404 221.906 111.953C220.957 112.502 219.709 112.752 218.212 112.752Z" fill="white"/>
<path d="M241.076 112.752C239.228 112.752 237.606 112.328 236.183 111.479C234.76 110.63 233.662 109.482 232.838 107.984C232.015 106.487 231.615 104.764 231.615 102.817C231.615 100.87 232.015 99.1481 232.838 97.6504C233.662 96.1527 234.76 95.0045 236.183 94.1558C237.606 93.3072 239.228 92.8828 241.076 92.8828C242.948 92.8828 244.62 93.3072 246.068 94.1558C247.516 95.0045 248.614 96.1527 249.413 97.6504C250.211 99.1481 250.611 100.87 250.611 102.817C250.611 104.789 250.211 106.512 249.413 107.984C248.614 109.482 247.491 110.63 246.068 111.479C244.62 112.328 242.973 112.752 241.076 112.752ZM241.076 109.432C242.274 109.432 243.297 109.158 244.146 108.633C244.994 108.084 245.643 107.335 246.118 106.337C246.592 105.338 246.817 104.165 246.817 102.817C246.817 101.445 246.592 100.271 246.118 99.2979C245.643 98.3244 244.994 97.5755 244.146 97.0264C243.297 96.4772 242.274 96.2276 241.076 96.2276C239.927 96.2276 238.954 96.5022 238.105 97.0264C237.256 97.5506 236.583 98.2994 236.108 99.2979C235.634 100.271 235.384 101.445 235.384 102.817C235.384 104.165 235.634 105.338 236.108 106.337C236.583 107.335 237.256 108.084 238.105 108.633C238.954 109.158 239.952 109.432 241.076 109.432Z" fill="white"/>
<path d="M258.199 112.427V93.207H261.893V109.532H270.33V112.402H258.199V112.427Z" fill="white"/>
<path d="M285.008 112.752C283.61 112.752 282.312 112.477 281.164 111.903C280.015 111.329 279.092 110.48 278.418 109.357C277.744 108.234 277.395 106.786 277.395 105.014V93.207H281.089V105.039C281.089 105.987 281.239 106.786 281.563 107.435C281.888 108.084 282.337 108.558 282.936 108.883C283.535 109.182 284.234 109.357 285.058 109.357C285.906 109.357 286.605 109.207 287.204 108.883C287.803 108.583 288.253 108.084 288.552 107.435C288.852 106.786 289.026 105.987 289.026 105.039V93.207H292.721V105.014C292.721 106.761 292.371 108.209 291.672 109.357C290.973 110.48 290.05 111.354 288.852 111.903C287.753 112.477 286.43 112.752 285.008 112.752Z" fill="white"/>
<path d="M305.001 112.427V96.2024H299.41V93.207H314.312V96.2024H308.721V112.427H305.001Z" fill="white"/>
<path d="M321.002 112.427V93.207H324.696V112.427H321.002Z" fill="white"/>
<path d="M341.321 112.752C339.474 112.752 337.851 112.328 336.428 111.479C335.005 110.63 333.882 109.482 333.083 107.984C332.285 106.487 331.86 104.764 331.86 102.817C331.86 100.87 332.26 99.1481 333.083 97.6504C333.907 96.1527 335.005 95.0045 336.428 94.1558C337.851 93.3072 339.474 92.8828 341.321 92.8828C343.193 92.8828 344.865 93.3072 346.313 94.1558C347.761 95.0045 348.859 96.1527 349.658 97.6504C350.457 99.1481 350.856 100.87 350.856 102.817C350.856 104.789 350.457 106.512 349.658 107.984C348.859 109.482 347.736 110.63 346.313 111.479C344.865 112.328 343.218 112.752 341.321 112.752ZM341.321 109.432C342.519 109.432 343.542 109.158 344.391 108.633C345.24 108.084 345.889 107.335 346.363 106.337C346.837 105.338 347.062 104.165 347.062 102.817C347.062 101.445 346.837 100.271 346.363 99.2979C345.889 98.3244 345.24 97.5755 344.391 97.0264C343.542 96.4772 342.519 96.2276 341.321 96.2276C340.197 96.2276 339.199 96.5022 338.35 97.0264C337.502 97.5506 336.828 98.2994 336.353 99.2979C335.879 100.271 335.63 101.445 335.63 102.817C335.63 104.165 335.854 105.338 336.353 106.337C336.828 107.335 337.502 108.084 338.35 108.633C339.199 109.158 340.197 109.432 341.321 109.432Z" fill="white"/>
<path d="M358.443 112.427V93.207H362.138L370.974 106.461V93.207H374.668V112.427H370.974L362.138 99.1977V112.427H358.443Z" fill="white"/>
</svg>
