<svg width="350" height="97" viewBox="0 0 350 97" fill="none" xmlns="http://www.w3.org/2000/svg">
<path d="M128.554 67V32H151.404V37.15H134.954V46.75H149.904V51.75H134.954V61.85H151.404V67H128.554ZM157.461 67V32H163.861L180.311 56.65V32H186.711V67H180.311L163.861 42.4V67H157.461ZM201.646 67V37.15H191.446V32H218.296V37.15H208.046V67H201.646ZM223.037 67V32H235.887C238.687 32 240.987 32.4833 242.787 33.45C244.62 34.3833 245.987 35.6667 246.887 37.3C247.787 38.9 248.237 40.6833 248.237 42.65C248.237 44.7833 247.67 46.7333 246.537 48.5C245.437 50.2667 243.703 51.55 241.337 52.35L248.587 67H241.237L234.737 53.2H229.437V67H223.037ZM229.437 48.5H235.487C237.62 48.5 239.187 47.9833 240.187 46.95C241.187 45.9167 241.687 44.55 241.687 42.85C241.687 41.1833 241.187 39.85 240.187 38.85C239.22 37.85 237.637 37.35 235.437 37.35H229.437V48.5ZM251.939 67L264.739 32H271.939L284.739 67H277.939L275.139 58.9H261.489L258.639 67H251.939ZM263.239 53.9H273.389L268.289 39.35L263.239 53.9ZM289.248 67V32H302.098C304.898 32 307.198 32.4833 308.998 33.45C310.831 34.3833 312.198 35.6667 313.098 37.3C313.998 38.9 314.448 40.6833 314.448 42.65C314.448 44.7833 313.881 46.7333 312.748 48.5C311.648 50.2667 309.914 51.55 307.548 52.35L314.798 67H307.448L300.948 53.2H295.648V67H289.248ZM295.648 48.5H301.698C303.831 48.5 305.398 47.9833 306.398 46.95C307.398 45.9167 307.898 44.55 307.898 42.85C307.898 41.1833 307.398 39.85 306.398 38.85C305.431 37.85 303.848 37.35 301.648 37.35H295.648V48.5Z" fill="white"/>
<path d="M65.4986 45.8567C71.0854 45.8567 75.6144 41.3277 75.6144 35.7409C75.6144 30.154 71.0854 25.625 65.4986 25.625C59.9118 25.625 55.3828 30.154 55.3828 35.7409C55.3828 41.3277 59.9118 45.8567 65.4986 45.8567Z" stroke="white" stroke-width="3" stroke-linecap="round" stroke-linejoin="round"/>
<path d="M65.5 53.6094C77.0646 53.6094 88.375 58.6164 88.375 66.2923V68.8339C88.375 70.2319 87.2313 71.3756 85.8333 71.3756H45.1667C43.7688 71.3756 42.625 70.2319 42.625 68.8339V66.2923C42.625 58.591 53.9354 53.6094 65.5 53.6094Z" stroke="white" stroke-width="3" stroke-linecap="round" stroke-linejoin="round"/>
<rect x="0.5" y="0.5" width="349" height="96" rx="19.5" stroke="white"/>
</svg>
