<svg width="461" height="56" viewBox="0 0 461 56" fill="none" xmlns="http://www.w3.org/2000/svg">
<path d="M132.29 23.7273C132.077 21.928 131.213 20.5312 129.697 19.5369C128.182 18.5426 126.324 18.0455 124.122 18.0455C122.512 18.0455 121.104 18.3059 119.896 18.8267C118.701 19.3475 117.766 20.0637 117.091 20.9751C116.428 21.8866 116.097 22.9223 116.097 24.0824C116.097 25.053 116.327 25.8875 116.789 26.5859C117.263 27.2725 117.866 27.8466 118.6 28.3082C119.334 28.758 120.103 29.1309 120.908 29.4268C121.713 29.7109 122.453 29.9418 123.128 30.1193L126.821 31.1136C127.768 31.3622 128.821 31.7055 129.982 32.1435C131.153 32.5814 132.272 33.1792 133.337 33.9368C134.415 34.6825 135.302 35.6413 136.001 36.8132C136.699 37.9851 137.048 39.4233 137.048 41.1278C137.048 43.0928 136.533 44.8684 135.504 46.4545C134.486 48.0407 132.994 49.3014 131.029 50.2365C129.076 51.1716 126.703 51.6392 123.909 51.6392C121.305 51.6392 119.05 51.219 117.144 50.3786C115.25 49.5381 113.759 48.3662 112.67 46.8629C111.593 45.3596 110.983 43.6136 110.841 41.625H115.386C115.505 42.9981 115.966 44.1345 116.771 45.0341C117.588 45.9219 118.618 46.5848 119.861 47.0227C121.116 47.4489 122.465 47.6619 123.909 47.6619C125.59 47.6619 127.099 47.3897 128.437 46.8452C129.774 46.2888 130.834 45.5194 131.615 44.5369C132.396 43.5426 132.787 42.3826 132.787 41.0568C132.787 39.8494 132.45 38.867 131.775 38.1094C131.1 37.3518 130.212 36.7363 129.112 36.2628C128.011 35.7893 126.821 35.375 125.543 35.0199L121.068 33.7415C118.227 32.9247 115.978 31.7588 114.321 30.2436C112.664 28.7285 111.835 26.7457 111.835 24.2955C111.835 22.2595 112.386 20.4839 113.487 18.9688C114.599 17.4418 116.091 16.258 117.961 15.4176C119.843 14.5653 121.944 14.1392 124.264 14.1392C126.608 14.1392 128.691 14.5594 130.514 15.3999C132.337 16.2285 133.781 17.3648 134.847 18.8089C135.924 20.2531 136.492 21.8925 136.551 23.7273H132.29ZM144.288 51V14.6364H166.234V18.5426H148.692V30.8295H165.098V34.7358H148.692V47.0938H166.518V51H144.288ZM198.035 14.6364H202.438V38.7131C202.438 41.1989 201.852 43.4183 200.68 45.3714C199.52 47.3127 197.881 48.8456 195.762 49.9702C193.643 51.0829 191.157 51.6392 188.305 51.6392C185.452 51.6392 182.966 51.0829 180.847 49.9702C178.728 48.8456 177.083 47.3127 175.911 45.3714C174.751 43.4183 174.171 41.1989 174.171 38.7131V14.6364H178.574V38.358C178.574 40.1335 178.965 41.7138 179.746 43.0987C180.528 44.4718 181.64 45.5549 183.084 46.348C184.54 47.1293 186.28 47.5199 188.305 47.5199C190.329 47.5199 192.069 47.1293 193.525 46.348C194.981 45.5549 196.093 44.4718 196.863 43.0987C197.644 41.7138 198.035 40.1335 198.035 38.358V14.6364ZM254.129 14.6364V51H249.868L230.053 22.4489H229.697V51H225.294V14.6364H229.555L249.442 43.2585H249.797V14.6364H254.129ZM262.941 51V14.6364H284.887V18.5426H267.344V30.8295H283.75V34.7358H267.344V47.0938H285.171V51H262.941ZM317.681 26C317.291 24.8045 316.776 23.7332 316.137 22.7862C315.509 21.8274 314.758 21.0107 313.882 20.3359C313.017 19.6612 312.035 19.1463 310.934 18.7912C309.833 18.4361 308.626 18.2585 307.312 18.2585C305.158 18.2585 303.199 18.8149 301.435 19.9276C299.671 21.0402 298.268 22.6797 297.227 24.8459C296.185 27.0121 295.664 29.6695 295.664 32.8182C295.664 35.9669 296.191 38.6243 297.244 40.7905C298.298 42.9567 299.724 44.5961 301.524 45.7088C303.323 46.8215 305.347 47.3778 307.596 47.3778C309.679 47.3778 311.514 46.9339 313.1 46.0462C314.698 45.1465 315.941 43.88 316.829 42.2464C317.729 40.6011 318.178 38.6657 318.178 36.4403L319.528 36.7244H308.59V32.8182H322.44V36.7244C322.44 39.7192 321.801 42.3234 320.522 44.5369C319.256 46.7505 317.504 48.4669 315.267 49.6861C313.041 50.8935 310.484 51.4972 307.596 51.4972C304.376 51.4972 301.547 50.7396 299.109 49.2244C296.682 47.7093 294.788 45.5549 293.427 42.7614C292.078 39.9678 291.403 36.6534 291.403 32.8182C291.403 29.9418 291.788 27.3553 292.557 25.0589C293.338 22.7507 294.439 20.7857 295.86 19.1641C297.28 17.5424 298.961 16.2995 300.902 15.4354C302.843 14.5713 304.98 14.1392 307.312 14.1392C309.23 14.1392 311.017 14.4292 312.674 15.0092C314.343 15.5774 315.829 16.3883 317.131 17.4418C318.445 18.4834 319.54 19.7322 320.416 21.1882C321.292 22.6323 321.895 24.2363 322.227 26H317.681ZM360.663 32.8182C360.663 36.6534 359.971 39.9678 358.586 42.7614C357.201 45.5549 355.301 47.7093 352.886 49.2244C350.472 50.7396 347.714 51.4972 344.612 51.4972C341.511 51.4972 338.753 50.7396 336.338 49.2244C333.923 47.7093 332.023 45.5549 330.638 42.7614C329.254 39.9678 328.561 36.6534 328.561 32.8182C328.561 28.983 329.254 25.6686 330.638 22.875C332.023 20.0814 333.923 17.9271 336.338 16.4119C338.753 14.8968 341.511 14.1392 344.612 14.1392C347.714 14.1392 350.472 14.8968 352.886 16.4119C355.301 17.9271 357.201 20.0814 358.586 22.875C359.971 25.6686 360.663 28.983 360.663 32.8182ZM356.402 32.8182C356.402 29.6695 355.875 27.0121 354.822 24.8459C353.78 22.6797 352.366 21.0402 350.578 19.9276C348.803 18.8149 346.814 18.2585 344.612 18.2585C342.411 18.2585 340.416 18.8149 338.629 19.9276C336.853 21.0402 335.438 22.6797 334.385 24.8459C333.343 27.0121 332.822 29.6695 332.822 32.8182C332.822 35.9669 333.343 38.6243 334.385 40.7905C335.438 42.9567 336.853 44.5961 338.629 45.7088C340.416 46.8215 342.411 47.3778 344.612 47.3778C346.814 47.3778 348.803 46.8215 350.578 45.7088C352.366 44.5961 353.78 42.9567 354.822 40.7905C355.875 38.6243 356.402 35.9669 356.402 32.8182ZM342.695 10.9432L347.027 2.70454H351.928L346.388 10.9432H342.695ZM397.329 26H392.925C392.665 24.7334 392.209 23.6207 391.558 22.6619C390.919 21.7031 390.138 20.8982 389.214 20.2472C388.303 19.5843 387.291 19.0871 386.178 18.7557C385.066 18.4242 383.906 18.2585 382.698 18.2585C380.496 18.2585 378.502 18.8149 376.714 19.9276C374.939 21.0402 373.524 22.6797 372.471 24.8459C371.429 27.0121 370.908 29.6695 370.908 32.8182C370.908 35.9669 371.429 38.6243 372.471 40.7905C373.524 42.9567 374.939 44.5961 376.714 45.7088C378.502 46.8215 380.496 47.3778 382.698 47.3778C383.906 47.3778 385.066 47.2121 386.178 46.8807C387.291 46.5492 388.303 46.058 389.214 45.407C390.138 44.7441 390.919 43.9332 391.558 42.9744C392.209 42.0038 392.665 40.8911 392.925 39.6364H397.329C396.997 41.4948 396.394 43.1579 395.518 44.6257C394.642 46.0935 393.553 47.3423 392.251 48.3722C390.949 49.3902 389.487 50.1655 387.865 50.6982C386.255 51.2308 384.533 51.4972 382.698 51.4972C379.597 51.4972 376.839 50.7396 374.424 49.2244C372.009 47.7093 370.109 45.5549 368.724 42.7614C367.339 39.9678 366.647 36.6534 366.647 32.8182C366.647 28.983 367.339 25.6686 368.724 22.875C370.109 20.0814 372.009 17.9271 374.424 16.4119C376.839 14.8968 379.597 14.1392 382.698 14.1392C384.533 14.1392 386.255 14.4055 387.865 14.9382C389.487 15.4709 390.949 16.2521 392.251 17.282C393.553 18.3 394.642 19.5428 395.518 21.0107C396.394 22.4666 396.997 24.1297 397.329 26ZM408.848 14.6364V51H404.444V14.6364H408.848ZM448.359 32.8182C448.359 36.6534 447.666 39.9678 446.281 42.7614C444.896 45.5549 442.996 47.7093 440.582 49.2244C438.167 50.7396 435.409 51.4972 432.308 51.4972C429.206 51.4972 426.448 50.7396 424.033 49.2244C421.619 47.7093 419.719 45.5549 418.334 42.7614C416.949 39.9678 416.256 36.6534 416.256 32.8182C416.256 28.983 416.949 25.6686 418.334 22.875C419.719 20.0814 421.619 17.9271 424.033 16.4119C426.448 14.8968 429.206 14.1392 432.308 14.1392C435.409 14.1392 438.167 14.8968 440.582 16.4119C442.996 17.9271 444.896 20.0814 446.281 22.875C447.666 25.6686 448.359 28.983 448.359 32.8182ZM444.097 32.8182C444.097 29.6695 443.571 27.0121 442.517 24.8459C441.475 22.6797 440.061 21.0402 438.273 19.9276C436.498 18.8149 434.509 18.2585 432.308 18.2585C430.106 18.2585 428.111 18.8149 426.324 19.9276C424.548 21.0402 423.134 22.6797 422.08 24.8459C421.039 27.0121 420.518 29.6695 420.518 32.8182C420.518 35.9669 421.039 38.6243 422.08 40.7905C423.134 42.9567 424.548 44.5961 426.324 45.7088C428.111 46.8215 430.106 47.3778 432.308 47.3778C434.509 47.3778 436.498 46.8215 438.273 45.7088C440.061 44.5961 441.475 42.9567 442.517 40.7905C443.571 38.6243 444.097 35.9669 444.097 32.8182Z" fill="white"/>
<path d="M5.23047 18.1579V8.46316C5.23047 4.89111 8.12158 2 11.6936 2H56.9357C60.5078 2 63.3989 4.89111 63.3989 8.46316V47.2421C63.3989 50.8141 60.5078 53.7053 56.9357 53.7053H37.5463" stroke="white" stroke-width="3" stroke-miterlimit="10" stroke-linecap="round"/>
<path d="M24.621 53.7051L23.8131 51.668C23.4034 50.6351 22.7629 49.7118 21.9492 48.9558C20.57 47.6747 18.758 46.9707 16.8768 46.9707H9.74424C7.863 46.9707 6.05098 47.6805 4.67179 48.9558C3.85813 49.7118 3.22336 50.6351 2.80787 51.668L2 53.7051" stroke="white" stroke-width="3" stroke-miterlimit="10" stroke-linecap="round"/>
<path d="M17.3081 29.5092C19.5183 31.7194 19.5183 35.2972 17.3081 37.5073C15.0979 39.7175 11.5201 39.7175 9.30997 37.5073C7.0998 35.2972 7.0998 31.7194 9.30997 29.5092C11.5201 27.299 15.0979 27.299 17.3081 29.5092Z" stroke="white" stroke-width="3" stroke-miterlimit="10" stroke-linecap="round"/>
<path d="M30.5195 38.4305V19.041" stroke="white" stroke-width="3" stroke-miterlimit="10" stroke-linecap="round"/>
<path d="M41.5977 38.4305V27.6855" stroke="white" stroke-width="3" stroke-miterlimit="10" stroke-linecap="round"/>
<path d="M52.6797 38.4302V20.8008" stroke="white" stroke-width="3" stroke-miterlimit="10" stroke-linecap="round"/>
</svg>
